HIERARCHY
ROOT Hips
{
	OFFSET 0.000000 0.000000 0.000000
	CHANNELS 6 Xposition Yposition Zposition Xrotation Yrotation Zrotation
	JOINT LeftUpLeg_virtual
	{
		OFFSET 0.000000 0.000000 0.000000
		CHANNELS 3 Xrotation Yrotation Zrotation
		JOINT LeftUpLeg
		{
			OFFSET 10.205400 -3.823500 0.155100
			CHANNELS 3 Xrotation Yrotation Zrotation
			JOINT LeftLeg
			{
				OFFSET 0.708757 -12.982077 0.567790
				CHANNELS 3 Xrotation Yrotation Zrotation
				JOINT LeftFoot
				{
					OFFSET -0.708756 -10.717838 -2.184338
					CHANNELS 3 Xrotation Yrotation Zrotation
					JOINT LeftToeBase
					{
						OFFSET 0.108149 -7.191104 7.560241
						CHANNELS 3 Xrotation Yrotation Zrotation
						JOINT LeftToe_End
						{
							OFFSET 0.070230 0.081724 4.490308
							CHANNELS 3 Xrotation Yrotation Zrotation
							End Site
							{
								OFFSET 0 0 0
							}
						}
					}
				}
			}
		}
	}
	JOINT RightUpLeg_virtual
	{
		OFFSET 0.000000 0.000000 0.000000
		CHANNELS 3 Xrotation Yrotation Zrotation
		JOINT RightUpLeg
		{
			OFFSET -10.205400 -3.823500 0.005500
			CHANNELS 3 Xrotation Yrotation Zrotation
			JOINT RightLeg
			{
				OFFSET -0.708756 -12.982134 0.610632
				CHANNELS 3 Xrotation Yrotation Zrotation
				JOINT RightFoot
				{
					OFFSET 0.708754 -10.717769 -1.945823
					CHANNELS 3 Xrotation Yrotation Zrotation
					JOINT RightToeBase
					{
						OFFSET -0.108140 -7.191069 7.372968
						CHANNELS 3 Xrotation Yrotation Zrotation
						JOINT RightToe_End
						{
							OFFSET -0.070227 0.081735 4.479403
							CHANNELS 3 Xrotation Yrotation Zrotation
							End Site
							{
								OFFSET 0 0 0
							}
						}
					}
				}
			}
		}
	}
	JOINT Spine_virtual
	{
		OFFSET 0.000000 0.000000 0.000000
		CHANNELS 3 Xrotation Yrotation Zrotation
		JOINT Spine
		{
			OFFSET 0.000000 6.876099 0.125700
			CHANNELS 3 Xrotation Yrotation Zrotation
			JOINT Spine1
			{
				OFFSET 0.000000 5.730043 0.104720
				CHANNELS 3 Xrotation Yrotation Zrotation
				JOINT Spine1_split
				{
					OFFSET 0.000000 5.730043 0.104720
					CHANNELS 3 Xrotation Yrotation Zrotation
					JOINT Spine2
					{
						OFFSET 0.000000 5.730043 0.104720
						CHANNELS 3 Xrotation Yrotation Zrotation
						JOINT Neck_virtual
						{
							OFFSET 0.000000 0.000000 0.000000
							CHANNELS 3 Xrotation Yrotation Zrotation
							JOINT Neck
							{
								OFFSET 0.000000 10.314075 0.188496
								CHANNELS 3 Xrotation Yrotation Zrotation
								JOINT Head
								{
									OFFSET 0.000000 7.643700 -2.377400
									CHANNELS 3 Xrotation Yrotation Zrotation
									JOINT HeadTop_End
									{
										OFFSET 0.000000 43.788605 -13.619600
										CHANNELS 3 Xrotation Yrotation Zrotation
										End Site
										{
											OFFSET 0 0 0
										}
									}
								}
							}
						}
						JOINT LeftShoulder_virtual
						{
							OFFSET 0.000000 0.000000 0.000000
							CHANNELS 3 Xrotation Yrotation Zrotation
							JOINT LeftShoulder
							{
								OFFSET 2.196100 4.412489 0.087492
								CHANNELS 3 Xrotation Yrotation Zrotation
								JOINT LeftShoulder_split
								{
									OFFSET 2.196100 4.412489 0.087492
									CHANNELS 3 Xrotation Yrotation Zrotation
									JOINT LeftArm
									{
										OFFSET 8.771219 -2.981674 -0.026999
										CHANNELS 3 Xrotation Yrotation Zrotation
										JOINT LeftForeArm
										{
											OFFSET 8.512804 0.000000 -0.000000
											CHANNELS 3 Xrotation Yrotation Zrotation
											JOINT LeftHand
											{
												OFFSET 18.484802 0.000000 -0.000000
												CHANNELS 3 Xrotation Yrotation Zrotation
												End Site
												{
													OFFSET 0 0 0
												}
											}
										}
									}
								}
							}
						}
						JOINT RightShoulder_virtual
						{
							OFFSET 0.000000 0.000000 0.000000
							CHANNELS 3 Xrotation Yrotation Zrotation
							JOINT RightShoulder
							{
								OFFSET -2.196100 4.412496 0.070690
								CHANNELS 3 Xrotation Yrotation Zrotation
								JOINT RightShoulder_split
								{
									OFFSET -2.196100 4.412496 0.070690
									CHANNELS 3 Xrotation Yrotation Zrotation
									JOINT RightArm
									{
										OFFSET -8.771282 -2.981682 -0.094208
										CHANNELS 3 Xrotation Yrotation Zrotation
										JOINT RightForeArm
										{
											OFFSET -8.494598 0.000000 0.000000
											CHANNELS 3 Xrotation Yrotation Zrotation
											JOINT RightHand
											{
												OFFSET -18.483803 0.000000 0.000001
												CHANNELS 3 Xrotation Yrotation Zrotation
												End Site
												{
													OFFSET 0 0 0
												}
											}
										}
									}
								}
							}
						}
					}
				}
			}
		}
	}
}
MOTION
Frames: 8
Frame Time: 0.03333333
0.141535 45.251221 6.194293 0.000000 0.000000 0.000000 -85.577394 -7.925463 -1.911546 -6.322400 18.837448 16.823463 8.283379 3.650560 3.377497 12.217042 30.287402 -25.312754 -6.947747 0.078076 1.915922 0.000000 0.000000 0.000000 -87.225457 -5.585989 -0.857075 -6.993336 -16.827476 -15.070606 14.108902 -2.980609 -9.354690 19.135914 -34.701415 33.805407 -13.582579 0.903417 -1.418131 0.000000 0.000000 0.000000 -85.005249 -7.653319 -2.775055 -0.640762 -2.487063 0.237709 -0.417425 -2.905323 0.741013 2.059873 3.168073 -0.556509 0.000000 0.000000 0.000000 -1.957205 -3.062432 0.462695 -13.471030 1.509875 0.317615 10.352333 -2.256947 3.888948 0.000000 0.000000 0.000000 -1.126333 -3.104178 1.127529 0.383105 3.844362 -2.432729 -2.540690 2.524900 -5.802988 41.956233 -32.925596 -47.402804 169.402297 -87.473618 169.883320 0.000000 0.000000 0.000000 -1.164498 -2.889852 0.656949 1.088253 -4.117143 12.949383 0.680912 3.038031 -0.259302 31.922002 34.177000 39.504038 173.570188 76.024609 -173.337101 0.000000 0.000000 0.000000 
0.185863 45.277821 6.320691 0.000000 0.000000 0.000000 -85.549390 -7.935386 -1.972274 -6.421150 18.550020 16.829468 8.339392 3.645341 3.401768 12.417025 30.290154 -25.354233 -6.779227 0.100630 1.874424 0.000000 0.000000 0.000000 -87.212862 -5.523707 -0.826694 -6.751756 -16.733613 -14.778578 14.014805 -3.012265 -9.427602 18.922896 -34.840508 33.840504 -13.660367 0.969332 -1.506244 0.000000 0.000000 0.000000 -84.855012 -7.398540 -2.621502 -0.566632 -2.478169 0.411281 -0.262558 -2.859448 0.783566 1.888367 3.083836 -0.761681 0.000000 0.000000 0.000000 -1.916380 -3.038171 0.494607 -13.732820 1.753511 0.236878 10.499313 -1.936156 3.377132 0.000000 0.000000 0.000000 -0.886165 -3.065759 1.254276 0.217058 3.751991 -3.062479 -2.309750 3.214884 -5.008037 41.831323 -32.888310 -47.110950 167.914586 -87.978806 168.161470 0.000000 0.000000 0.000000 -0.874987 -2.805862 0.621482 1.137047 -3.860258 12.756276 0.892869 2.750594 -0.048243 29.882863 34.473368 39.640724 173.829940 74.968969 -173.646030 0.000000 0.000000 0.000000 
0.217353 45.336983 6.455766 0.000000 0.000000 0.000000 -85.571048 -7.894307 -1.936980 -6.568529 18.291503 16.849971 8.371328 3.708943 3.412418 12.489202 30.291213 -25.381902 -6.543346 0.140427 1.790580 0.000000 0.000000 0.000000 -87.186484 -5.365863 -0.717801 -6.483924 -16.397382 -14.358314 13.980654 -3.044539 -9.559474 18.636834 -35.069545 33.670408 -13.661285 1.086628 -1.613741 0.000000 0.000000 0.000000 -84.796047 -7.216889 -2.531989 -0.347453 -2.486569 0.656656 0.153028 -2.808881 0.811167 1.644290 2.640439 -0.902881 0.000000 0.000000 0.000000 -1.578463 -3.016260 0.506197 -13.804153 1.981364 -0.134395 10.500542 -1.203952 2.297551 0.000000 0.000000 0.000000 -0.313810 -3.070037 1.317859 0.057842 3.733676 -4.041957 -2.157856 3.816062 -4.126217 40.251831 -32.385636 -47.547631 170.012247 -89.214906 170.127540 0.000000 0.000000 0.000000 -0.407240 -2.762660 0.549197 1.089428 -3.212691 12.434473 1.020187 2.518474 0.705539 26.018445 35.199564 39.918115 175.044129 73.990565 -175.111188 0.000000 0.000000 0.000000 
0.232449 45.407043 6.573359 0.000000 0.000000 0.000000 -85.613484 -7.818585 -1.798679 -6.702769 18.152857 16.863870 8.397104 3.787973 3.422777 12.407647 30.278755 -25.413626 -6.462378 0.182598 1.733002 0.000000 0.000000 0.000000 -87.166150 -5.213488 -0.550448 -6.369740 -15.929275 -13.960711 14.057922 -3.030236 -9.704574 18.400642 -35.296727 33.390001 -13.559789 1.225694 -1.693725 0.000000 0.000000 0.000000 -84.878160 -7.169514 -2.510873 -0.009742 -2.460447 0.880233 0.824157 -2.649948 0.804538 1.355062 1.924583 -0.830186 0.000000 0.000000 0.000000 -0.944642 -2.886872 0.460682 -13.602963 2.063992 -0.681869 10.333630 -0.202642 0.819770 0.000000 0.000000 0.000000 0.559944 -2.990723 1.312072 -0.066940 3.778338 -5.149853 -1.947305 3.945424 -3.172035 37.711534 -31.658234 -48.270344 -33.329414 -89.414157 -33.259552 0.000000 0.000000 0.000000 0.213989 -2.654416 0.432560 0.935647 -2.226163 12.042961 0.983450 2.494629 1.597856 20.740650 36.158393 40.484953 176.574419 73.168962 -177.004830 0.000000 0.000000 0.000000 
0.237545 45.472366 6.675123 0.000000 0.000000 0.000000 -85.671302 -7.733151 -1.560792 -6.809245 18.161739 16.872780 8.368758 3.857731 3.447561 12.145774 30.259623 -25.399319 -6.544391 0.208230 1.745036 0.000000 0.000000 0.000000 -87.189974 -5.125866 -0.352344 -6.498999 -15.502964 -13.673783 14.244399 -2.965030 -9.830964 18.300520 -35.454283 33.073746 -13.316775 1.350052 -1.704346 0.000000 0.000000 0.000000 -85.109328 -7.271335 -2.533032 0.426929 -2.323122 0.981496 1.775701 -2.268449 0.762660 1.117489 1.246174 -0.553926 0.000000 0.000000 0.000000 -0.029488 -2.533692 0.354207 -13.066580 1.950625 -1.215385 10.041368 0.747565 -0.831738 0.000000 0.000000 0.000000 1.672167 -2.690060 1.230700 -0.137211 3.800305 -6.149460 -1.455921 3.533053 -2.411707 34.935093 -31.002553 -48.761783 -30.131567 -88.427413 -30.064092 0.000000 0.000000 0.000000 1.002197 -2.369341 0.262717 0.701017 -1.075366 11.695451 0.641282 2.458700 2.202632 14.438412 36.919143 41.539462 178.064971 72.123082 -178.895113 0.000000 0.000000 0.000000 
0.230640 45.524162 6.770126 0.000000 0.000000 0.000000 -85.722392 -7.677671 -1.260824 -6.886140 18.267503 16.886656 8.253908 3.895760 3.495946 11.614692 30.294293 -25.241425 -6.611709 0.207366 1.814480 0.000000 0.000000 0.000000 -87.181422 -5.097197 -0.106313 -6.794207 -15.246616 -13.504797 14.475937 -2.867531 -9.918426 18.250221 -35.530620 32.727633 -12.941702 1.439874 -1.638843 0.000000 0.000000 0.000000 -85.388013 -7.455239 -2.572475 0.921809 -1.993651 0.922481 3.016095 -1.596465 0.691842 0.853900 0.741665 -0.278451 0.000000 0.000000 0.000000 1.168791 -1.890812 0.202209 -12.116352 1.563901 -1.660066 9.702478 1.358756 -2.442865 0.000000 0.000000 0.000000 2.983724 -2.090594 1.097325 -0.148174 3.749520 -6.807787 -0.742789 2.766467 -1.865468 32.436104 -30.868166 -48.526168 -35.825572 -88.104625 -35.742677 0.000000 0.000000 0.000000 2.009130 -1.806179 0.062331 0.417948 0.111735 11.458695 0.251428 2.412014 2.548863 7.535063 37.094689 43.250821 179.030788 70.408028 179.773106 0.000000 0.000000 0.000000 
0.216060 45.569618 6.828947 0.000000 0.000000 0.000000 -85.738429 -7.626196 -0.935981 -6.906631 18.385568 16.913545 7.999554 3.871250 3.582863 10.797355 30.417407 -24.916037 -6.564448 0.179192 1.932321 0.000000 0.000000 0.000000 -87.150646 -5.091874 0.173824 -7.076438 -15.206197 -13.414357 14.718817 -2.778973 -9.959236 18.146389 -35.548864 32.381988 -12.500151 1.480313 -1.514779 0.000000 0.000000 0.000000 -85.659233 -7.633232 -2.605243 1.458263 -1.470705 0.699540 4.552690 -0.653550 0.598628 0.757540 0.451770 0.021550 0.000000 0.000000 0.000000 2.649644 -0.971976 0.020899 -10.805706 0.976916 -1.964644 9.448118 1.482244 -3.870451 0.000000 0.000000 0.000000 4.466997 -1.213396 0.920389 -0.098473 3.562545 -7.013526 -0.069834 1.924433 -1.859863 30.552631 -31.555320 -47.226568 -44.702611 -88.296123 -44.579842 0.000000 0.000000 0.000000 3.297474 -0.962431 -0.130791 0.132249 1.201675 11.388732 -0.024665 2.479757 2.716644 0.311549 36.327290 45.590543 179.401435 67.780024 179.157009 0.000000 0.000000 0.000000 
0.198959 45.623032 6.870578 0.000000 0.000000 0.000000 -85.734064 -7.560272 -0.645953 -6.833036 18.399010 16.984867 7.619576 3.748940 3.696679 9.781995 30.624441 -24.515615 -6.447539 0.133474 2.086357 0.000000 0.000000 0.000000 -87.120094 -5.062657 0.431054 -7.206522 -15.376450 -13.376085 14.942521 -2.706993 -9.963210 17.890110 -35.513036 32.068343 -11.994492 1.475357 -1.375019 0.000000 0.000000 0.000000 -85.821812 -7.793294 -2.658793 1.993580 -0.786334 0.375807 6.396137 0.455987 0.491816 0.810772 0.333407 0.232320 0.000000 0.000000 0.000000 4.423416 0.143000 -0.158361 -9.233384 0.304175 -2.163555 9.420650 1.187341 -5.060907 0.000000 0.000000 0.000000 6.158430 -0.139498 0.720796 0.013933 3.287891 -6.781942 0.551343 1.235238 -2.372026 29.296795 -33.069396 -44.875548 -48.931567 -88.581420 -48.732676 0.000000 0.000000 0.000000 4.910640 0.090524 -0.288868 -0.095433 2.124579 11.533287 -0.127166 2.580370 2.819258 -6.663026 34.514483 48.303282 179.349826 64.349999 179.124156 0.000000 0.000000 0.000000 
